<svg width="59" height="29" viewBox="0 0 59 29" fill="none" xmlns="http://www.w3.org/2000/svg">
<path d="M14.3189 14.5C14.4023 14.15 14.5773 13.8833 14.8439 13.7C15.1106 13.5167 15.4189 13.425 15.7689 13.425C16.1856 13.425 16.5439 13.55 16.8439 13.8C17.1606 14.05 17.3189 14.3833 17.3189 14.8C17.3189 14.95 17.2939 15.125 17.2439 15.325C16.7606 16.875 16.0106 18.15 14.9939 19.15C13.9939 20.15 12.8689 20.875 11.6189 21.325C10.3856 21.775 9.14395 22 7.89395 22C6.47728 22 5.21061 21.7417 4.09395 21.225C2.97728 20.6917 2.10228 19.975 1.46895 19.075C0.852279 18.175 0.543945 17.1833 0.543945 16.1C0.543945 15.3167 0.685612 14.525 0.968945 13.725L4.09395 4.8C4.69395 3.11667 5.54395 1.95 6.64395 1.3C7.76061 0.633332 8.90228 0.299999 10.0689 0.299999C11.5356 0.299999 12.7356 0.691666 13.6689 1.475C14.6189 2.24167 15.0939 3.3 15.0939 4.65C15.0939 5.21667 15.0106 5.80833 14.8439 6.425C14.6273 7.19167 14.3106 7.75833 13.8939 8.125C13.4773 8.49167 13.0273 8.675 12.5439 8.675C12.0606 8.675 11.6356 8.51667 11.2689 8.2C10.9023 7.88333 10.7189 7.50833 10.7189 7.075C10.7189 6.875 10.7523 6.7 10.8189 6.55C11.0189 6.05 11.1189 5.61667 11.1189 5.25C11.1189 4.88333 11.0273 4.60833 10.8439 4.425C10.6773 4.24167 10.4439 4.15 10.1439 4.15C9.74395 4.15 9.33561 4.28333 8.91895 4.55C8.51895 4.81667 8.18561 5.31667 7.91895 6.05L4.76895 14.825C4.63561 15.2083 4.56895 15.6167 4.56895 16.05C4.56895 16.5833 4.75228 17.0667 5.11895 17.5C5.50228 17.9333 5.99395 18.275 6.59395 18.525C7.19395 18.7583 7.82728 18.875 8.49395 18.875C9.62728 18.875 10.7439 18.5167 11.8439 17.8C12.9439 17.0667 13.7689 15.9667 14.3189 14.5ZM16.8254 17.925C16.7587 18.125 16.7254 18.2667 16.7254 18.35C16.7254 18.55 16.7921 18.7167 16.9254 18.85C17.0587 18.9667 17.2504 19.025 17.5004 19.025C18.1337 19.025 18.7837 18.6667 19.4504 17.95C20.1171 17.2333 20.7171 16.1667 21.2504 14.75C21.4171 14.3167 21.6504 13.9917 21.9504 13.775C22.2504 13.5583 22.5671 13.45 22.9004 13.45C23.3004 13.45 23.6421 13.5833 23.9254 13.85C24.2254 14.1167 24.3754 14.4417 24.3754 14.825C24.3754 14.975 24.3504 15.1417 24.3004 15.325C23.5004 17.7083 22.4587 19.4167 21.1754 20.45C19.9087 21.4833 18.5837 22 17.2004 22C16.0504 22 15.0754 21.6833 14.2754 21.05C13.4921 20.4 13.1004 19.525 13.1004 18.425C13.1004 17.9083 13.2004 17.3667 13.4004 16.8L18.6004 1.95C18.8004 1.38333 19.0587 0.966666 19.3754 0.699999C19.7087 0.433332 20.1087 0.299999 20.5754 0.299999C20.9754 0.299999 21.3504 0.449999 21.7004 0.749999C22.0504 1.05 22.2254 1.425 22.2254 1.875C22.2254 2.14167 22.1754 2.425 22.0754 2.725L16.8254 17.925ZM27.1078 5.025C26.5411 5.025 26.0578 4.825 25.6578 4.425C25.2578 4.00833 25.0578 3.51667 25.0578 2.95C25.0578 2.38333 25.2578 1.90833 25.6578 1.525C26.0578 1.125 26.5411 0.924999 27.1078 0.924999C27.6745 0.924999 28.1578 1.125 28.5578 1.525C28.9578 1.90833 29.1578 2.38333 29.1578 2.95C29.1578 3.51667 28.9578 4.00833 28.5578 4.425C28.1578 4.825 27.6745 5.025 27.1078 5.025ZM23.7328 17.775C23.6828 17.925 23.6578 18.0583 23.6578 18.175C23.6578 18.425 23.7411 18.6333 23.9078 18.8C24.0911 18.95 24.3245 19.025 24.6078 19.025C25.1745 19.025 25.7578 18.6917 26.3578 18.025C26.9745 17.3417 27.5578 16.25 28.1078 14.75C28.2578 14.3833 28.4828 14.1083 28.7828 13.925C29.0828 13.725 29.4078 13.625 29.7578 13.625C30.1578 13.625 30.5078 13.7417 30.8078 13.975C31.1078 14.2083 31.2578 14.5083 31.2578 14.875C31.2578 15.025 31.2328 15.175 31.1828 15.325C30.3661 17.725 29.3578 19.4417 28.1578 20.475C26.9578 21.4917 25.6661 22 24.2828 22C23.0828 22 22.0745 21.6667 21.2578 21C20.4411 20.3333 20.0328 19.4333 20.0328 18.3C20.0328 18.0167 20.1495 17.4833 20.3828 16.7C20.6995 15.8333 21.0661 14.7667 21.4828 13.5C22.0661 11.8667 22.5828 10.3833 23.0328 9.05C23.2161 8.48333 23.4911 8.05833 23.8578 7.775C24.2245 7.475 24.6161 7.325 25.0328 7.325C25.4828 7.325 25.8745 7.475 26.2078 7.775C26.5411 8.075 26.7078 8.48333 26.7078 9C26.7078 9.13333 26.6328 9.44167 26.4828 9.925L23.7328 17.775ZM40.9414 14.8C41.0914 14.35 41.3247 14.0083 41.6414 13.775C41.9581 13.5417 42.2997 13.425 42.6664 13.425C43.0664 13.425 43.4081 13.55 43.6914 13.8C43.9747 14.0333 44.1164 14.35 44.1164 14.75C44.1164 14.9 44.0747 15.1 43.9914 15.35C42.4414 19.7833 39.0664 22 33.8664 22C31.7664 22 30.3164 21.6917 29.5164 21.075L27.5164 27C27.3664 27.4333 27.1164 27.7583 26.7664 27.975C26.4164 28.2083 26.0164 28.325 25.5664 28.325C25.0831 28.325 24.6747 28.1833 24.3414 27.9C23.9914 27.6333 23.8164 27.2583 23.8164 26.775C23.8164 26.5083 23.8747 26.225 23.9914 25.925L30.2164 8.325C30.3997 7.825 30.6664 7.45 31.0164 7.2C31.3831 6.95 31.7831 6.825 32.2164 6.825C32.6831 6.825 33.0831 6.93333 33.4164 7.15C33.7497 7.35 33.9081 7.6 33.8914 7.9C34.3581 7.51667 35.0331 7.325 35.9164 7.325C36.5497 7.325 37.1414 7.5 37.6914 7.85C38.2581 8.18333 38.7081 8.64167 39.0414 9.225C39.3747 9.79167 39.5414 10.4083 39.5414 11.075C39.5414 11.5083 39.4664 11.9417 39.3164 12.375C38.6664 14.1583 38.3581 15.0083 38.3914 14.925C37.7247 16.7917 37.3247 17.9083 37.1914 18.275L36.9664 18.8C37.8497 18.4833 38.6331 17.9917 39.3164 17.325C40.0164 16.6417 40.5581 15.8 40.9414 14.8ZM30.8414 17.4C30.7747 17.5833 30.7414 17.775 30.7414 17.975C30.7414 18.3083 30.8497 18.5667 31.0664 18.75C31.2831 18.9333 31.5581 19.025 31.8914 19.025C32.2414 19.0083 32.5664 18.8917 32.8664 18.675C33.1664 18.4583 33.3831 18.1667 33.5164 17.8L34.1914 15.85C34.5414 14.9167 34.9831 13.6417 35.5164 12.025C35.5997 11.7417 35.6414 11.5083 35.6414 11.325C35.6414 11.025 35.5247 10.775 35.2914 10.575C35.0747 10.375 34.8081 10.275 34.4914 10.275C34.1247 10.275 33.7914 10.3917 33.4914 10.625C33.2081 10.8417 32.9914 11.1667 32.8414 11.6L30.8414 17.4ZM45.3594 2.225C45.5427 1.60833 45.8427 1.14167 46.2594 0.824998C46.676 0.491665 47.1177 0.324999 47.5844 0.324999C48.051 0.324999 48.451 0.491665 48.7844 0.824998C49.1344 1.14167 49.3094 1.575 49.3094 2.125C49.3094 2.45833 49.251 2.8 49.1344 3.15L43.2344 20.1C43.0177 20.7167 42.7094 21.1917 42.3094 21.525C41.9094 21.8417 41.476 22 41.0094 22C40.5427 22 40.1427 21.8417 39.8094 21.525C39.4594 21.1917 39.2844 20.75 39.2844 20.2C39.2844 19.8667 39.3427 19.525 39.4594 19.175L45.3594 2.225ZM55.5773 14.95C55.7107 14.5667 55.9273 14.2833 56.2273 14.1C56.544 13.9 56.869 13.8 57.2023 13.8C57.6023 13.8 57.9523 13.9167 58.2523 14.15C58.5523 14.3667 58.7023 14.6583 58.7023 15.025C58.7023 15.125 58.669 15.2917 58.6023 15.525C57.8857 17.575 56.8857 19.1667 55.6023 20.3C54.3357 21.4333 52.9023 22 51.3023 22C50.4357 22 49.6273 21.8417 48.8773 21.525C48.144 21.1917 47.5523 20.7167 47.1023 20.1C46.669 19.4833 46.4523 18.7667 46.4523 17.95C46.4523 17.4333 46.5523 16.875 46.7523 16.275V16.3L48.8523 10.275H48.0273C47.694 10.275 47.4273 10.15 47.2273 9.9C47.0273 9.65 46.9273 9.34167 46.9273 8.975C46.9273 8.525 47.0857 8.14167 47.4023 7.825C47.7357 7.49167 48.219 7.325 48.8523 7.325H49.9023L51.9023 1.75C52.0523 1.31667 52.2857 0.966666 52.6023 0.699999C52.9357 0.433332 53.3107 0.299999 53.7273 0.299999C54.2607 0.299999 54.6857 0.458333 55.0023 0.774999C55.319 1.09167 55.4773 1.49167 55.4773 1.975C55.4773 2.10833 55.4523 2.26667 55.4023 2.45L53.7273 7.325H54.8523C55.3023 7.325 55.644 7.44167 55.8773 7.675C56.1107 7.90833 56.2273 8.2 56.2273 8.55C56.2273 9 56.0523 9.4 55.7023 9.75C55.3523 10.1 54.8773 10.275 54.2773 10.275H52.6523L50.2023 17.25C50.1357 17.4833 50.1023 17.6667 50.1023 17.8C50.1023 18.15 50.2357 18.4417 50.5023 18.675C50.769 18.9083 51.119 19.025 51.5523 19.025C52.319 19.025 53.0607 18.6833 53.7773 18C54.494 17.3 55.094 16.2833 55.5773 14.95Z" fill="#6F7177"/>
</svg>
